<?xml version="1.0" encoding="utf-8"?>
<!-- Generator: Adobe Illustrator 19.2.1, SVG Export Plug-In . SVG Version: 6.00 Build 0)  -->
<svg version="1.1" id="Layer_1" xmlns="http://www.w3.org/2000/svg" xmlns:xlink="http://www.w3.org/1999/xlink" x="0px" y="0px"
	 viewBox="0 0 400 400" style="enable-background:new 0 0 400 400;" xml:space="preserve">
<style type="text/css">
	.st0{fill:#FFFFFF;stroke:#000000;stroke-miterlimit:10;}
	.st1{fill:#DDE5E8;}
	.st2{fill:#D1DADD;}
	.st3{fill:#71C5C4;}
	.st4{fill:#FFFFFF;}
	.st5{fill:#4D4D4D;}
	.st6{fill:#FFFFFF;stroke:#DDE5E8;stroke-width:5;stroke-miterlimit:10;}
</style>
<g>
	<g>
		<path class="st1" d="M338.8,99.9v267c0,2-0.5,3.9-1.4,5.6c-0.9,1.7-2.2,3.3-3.7,4.6c-1.6,1.3-3.5,2.4-5.5,3.1
			c-2.1,0.7-4.4,1.1-6.8,1.1H65.9c-2.4,0-4.7-0.4-6.8-1.1c-2.1-0.7-4-1.8-5.5-3.1c-1.6-1.3-2.8-2.9-3.7-4.6
			c-0.9-1.7-1.4-3.6-1.4-5.6V33.1c0-2,0.5-3.9,1.4-5.6c0.9-1.7,2.2-3.3,3.7-4.6c1.6-1.3,3.5-2.4,5.5-3.1c2.1-0.7,4.4-1.1,6.8-1.1
			h191.6L338.8,99.9z"/>
	</g>
	<g>
		<path class="st2" d="M327.5,99.9l-70-70v63.9c0,2.4,0.5,4.7,1.4,6.8c0.9,2.1,2.2,4,3.7,5.5c1.6,1.6,3.5,2.8,5.5,3.7
			c2.1,0.9,4.4,1.4,6.8,1.4H325h13.8V99.9H327.5z"/>
	</g>
	<g>
		<path class="st3" d="M338.8,99.9h-63.9c-2.4,0-4.7-0.5-6.8-1.4c-2.1-0.9-4-2.2-5.5-3.7c-1.6-1.6-2.9-3.5-3.7-5.5
			c-0.9-2.1-1.4-4.4-1.4-6.8V18.6L338.8,99.9z"/>
	</g>
	<g>
		<rect x="173.7" y="249.3" class="st4" width="174.1" height="87.1"/>
		<path class="st1" d="M351.5,340H170.1v-94.3h181.4V340z M177.3,332.8h166.9V253H177.3V332.8z"/>
	</g>
	<g>
		<path class="st5" d="M204.6,307c0-3.1,2.1-5.4,5.2-5.4c3.1,0,5.2,2.2,5.2,5.4c0,3.1-2.1,5.3-5.2,5.3
			C206.7,312.4,204.6,310.1,204.6,307z"/>
		<path class="st5" d="M220.6,273.1c3.3-0.5,7.5-0.8,12-0.8c7.4,0,12.2,1.3,16,4.2c4.1,3,6.6,7.8,6.6,14.7c0,7.5-2.7,12.7-6.5,15.8
			c-4.1,3.4-10.4,5-18,5c-4.6,0-7.8-0.3-10-0.6V273.1z M229.5,305.1c0.8,0.2,2,0.2,3.1,0.2c8,0.1,13.2-4.4,13.2-13.7
			c0.1-8.1-4.7-12.4-12.3-12.4c-2,0-3.3,0.2-4,0.3V305.1z"/>
		<path class="st5" d="M296.8,291.8c0,12.8-7.8,20.6-19.2,20.6c-11.6,0-18.4-8.8-18.4-19.9c0-11.7,7.5-20.5,19-20.5
			C290.3,272,296.8,281,296.8,291.8z M268.5,292.3c0,7.7,3.6,13.1,9.5,13.1c6,0,9.4-5.7,9.4-13.3c0-7-3.4-13.1-9.5-13.1
			C272,279,268.5,284.7,268.5,292.3z"/>
		<path class="st5" d="M331.4,310.6c-1.6,0.8-5.3,1.7-10,1.7c-13.5,0-20.5-8.4-20.5-19.6c0-13.3,9.5-20.8,21.4-20.8
			c4.6,0,8.1,0.9,9.6,1.7l-1.8,7c-1.8-0.8-4.3-1.5-7.4-1.5c-7,0-12.5,4.2-12.5,12.9c0,7.8,4.6,12.8,12.5,12.8c2.7,0,5.6-0.6,7.4-1.3
			L331.4,310.6z"/>
	</g>
</g>
</svg>
