<svg id="Capa_1" data-name="Capa 1" xmlns="http://www.w3.org/2000/svg" viewBox="0 0 132 330"><defs><style>.cls-1{fill:#fff;}.cls-2{fill:#e9e9e0;}.cls-3{fill:#d9d7ca;}.cls-4{fill:#cc4b4c;}.cls-5{fill:#8697cb;}.cls-6{fill:#0096e6;}.cls-7{fill:#f6712e;}.cls-8{fill:#c8bdb8;}.cls-9{fill:#d3ccc9;}.cls-10{fill:#91cda0;}.cls-11{fill:#95a5a5;}.cls-12{fill:#f36fa0;}.cls-13{fill:#90bae1;}.cls-14{fill:#556080;}.cls-15{fill:#f3d55b;}.cls-16{fill:#26b99a;}.cls-17{fill:#14a085;}</style></defs><title>office-icon</title><rect class="cls-1" x="66" width="66" height="66"/><rect class="cls-1" x="66" y="66" width="66" height="66"/><rect class="cls-1" x="66" y="132" width="66" height="66"/><rect class="cls-1" y="66" width="66" height="66"/><rect class="cls-1" y="132" width="66" height="66"/><rect class="cls-1" x="66" y="198" width="66" height="66"/><rect class="cls-1" y="198" width="66" height="66"/><rect class="cls-1" y="264" width="66" height="66"/><path class="cls-2" d="M42,5H13c-0.81,0-1.46.65-1.46,1.93V60A1.51,1.51,0,0,0,13,61H53a1.51,1.51,0,0,0,1.46-1V18a1.38,1.38,0,0,0-.26-1.09L42.61,5.26A0.88,0.88,0,0,0,42,5Z"/><polygon class="cls-3" points="42.5 5.15 42.5 17 54.35 17 42.5 5.15"/><path class="cls-4" d="M24.51,38.32h0a1.61,1.61,0,0,1-1-.33,2.4,2.4,0,0,1-1.11-2.24c0.18-1.63,2.19-3.33,6-5.07a67.13,67.13,0,0,0,3.79-10.75c-1-2.17-2-5-1.26-6.64a1.92,1.92,0,0,1,1.13-1.22,4.91,4.91,0,0,1,1-.17,2.17,2.17,0,0,1,1.26,1c0.3,0.38,1,1.17-.37,6.8a32,32,0,0,0,5.09,7.56A19.45,19.45,0,0,1,42.43,27c1.57,0,2.51.36,2.9,1.12a2,2,0,0,1-.39,2.16,2.66,2.66,0,0,1-2.22,1.19c-1.22,0-2.63-.77-4.21-2.28A47.92,47.92,0,0,0,29.68,32a28.37,28.37,0,0,1-2.38,4.25C26.27,37.65,25.39,38.32,24.51,38.32Zm2.66-5.13c-2.14,1.2-3,2.19-3.07,2.74a0.75,0.75,0,0,0,.43.69C24.68,36.59,25.56,36.19,27.18,33.2Zm13.64-4.44c0.81,0.63,1,.94,1.55.94a1.51,1.51,0,0,0,1.21-.44,1.58,1.58,0,0,0,.23-0.42,2,2,0,0,0-1.17-.2A14.62,14.62,0,0,0,40.81,28.76Zm-7.47-6.58a71.29,71.29,0,0,1-2.67,7.56,50,50,0,0,1,6.5-2A34.23,34.23,0,0,1,33.34,22.17Zm-0.61-8.46a2.4,2.4,0,0,0,.1,3.22C33.78,14.81,32.78,13.7,32.74,13.71Z"/><path class="cls-4" d="M53,61H13a1.46,1.46,0,0,1-1.46-1.46V44h43V59.54A1.46,1.46,0,0,1,53,61Z"/><path class="cls-1" d="M22.39,58H20.74V47.92h2.9a4.07,4.07,0,0,1,1.27.21,3.46,3.46,0,0,1,1.13.62,3.21,3.21,0,0,1,.81,1A2.75,2.75,0,0,1,27.16,51a3.57,3.57,0,0,1-.26,1.39,2.9,2.9,0,0,1-.73,1,3.27,3.27,0,0,1-1.12.66,4.31,4.31,0,0,1-1.45.23H22.38V58h0Zm0-8.83v4h1.5a1.79,1.79,0,0,0,.59-0.1A1.5,1.5,0,0,0,25,52.72a1.64,1.64,0,0,0,.4-0.65,3.07,3.07,0,0,0,.15-1,2.79,2.79,0,0,0-.07-0.57,1.64,1.64,0,0,0-.28-0.62,1.66,1.66,0,0,0-.59-0.49,2.21,2.21,0,0,0-1-.2H22.39Z"/><path class="cls-1" d="M37.22,52.68A7.4,7.4,0,0,1,37,54.81a5.29,5.29,0,0,1-.68,1.48,3.48,3.48,0,0,1-.92.94,4.63,4.63,0,0,1-1,.51,4.09,4.09,0,0,1-.87.22,5.83,5.83,0,0,1-.59,0H29.08V47.92h3a5.77,5.77,0,0,1,2.24.4A4.64,4.64,0,0,1,36,49.4a4.4,4.4,0,0,1,1,1.52A5,5,0,0,1,37.22,52.68ZM32.35,56.8a2.72,2.72,0,0,0,2.41-1.07,5.41,5.41,0,0,0,.74-3.09,5.23,5.23,0,0,0-.15-1.24,2.66,2.66,0,0,0-.58-1.11,3.07,3.07,0,0,0-1.17-.81,5,5,0,0,0-1.91-.31h-1V56.8h1.63Z"/><path class="cls-1" d="M41.27,49.17v3.17h4.21v1.12H41.27V58H39.6V47.92h6.3v1.24H41.27Z"/><path class="cls-2" d="M108,5H79c-0.81,0-1.46.65-1.46,1.93V60A1.51,1.51,0,0,0,79,61H119a1.51,1.51,0,0,0,1.46-1V18a1.38,1.38,0,0,0-.26-1.09L108.61,5.26A0.88,0.88,0,0,0,108,5Z"/><polygon class="cls-3" points="108.5 5.15 108.5 17 120.35 17 108.5 5.15"/><path class="cls-5" d="M89.5,18h-6a1,1,0,0,1,0-2h6A1,1,0,0,1,89.5,18Z"/><path class="cls-5" d="M92.5,23h-9a1,1,0,0,1,0-2h9A1,1,0,0,1,92.5,23Z"/><path class="cls-5" d="M96.5,23a1,1,0,1,1,.71-0.29A1.05,1.05,0,0,1,96.5,23Z"/><path class="cls-5" d="M108.5,23h-8a1,1,0,1,1,0-2h8A1,1,0,0,1,108.5,23Z"/><path class="cls-5" d="M83.5,38a1,1,0,1,1,.71-1.71,1,1,0,0,1,.29.71A1,1,0,0,1,83.5,38Z"/><path class="cls-5" d="M95.5,38h-8a1,1,0,0,1,0-2h8A1,1,0,1,1,95.5,38Z"/><path class="cls-5" d="M114.5,23h-2a1,1,0,0,1,0-2h2A1,1,0,0,1,114.5,23Z"/><path class="cls-5" d="M105.5,28h-22a1,1,0,0,1,0-2h22A1,1,0,0,1,105.5,28Z"/><path class="cls-5" d="M114.5,28h-6a1,1,0,0,1,0-2h6A1,1,0,0,1,114.5,28Z"/><path class="cls-5" d="M87.5,33h-4a1,1,0,0,1,0-2h4A1,1,0,0,1,87.5,33Z"/><path class="cls-5" d="M101.5,33h-10a1,1,0,0,1,0-2h10A1,1,0,0,1,101.5,33Z"/><path class="cls-5" d="M114.5,33h-9a1,1,0,0,1,0-2h9A1,1,0,0,1,114.5,33Z"/><path class="cls-6" d="M119,61H79a1.46,1.46,0,0,1-1.46-1.46V44h43V59.54A1.46,1.46,0,0,1,119,61Z"/><path class="cls-1" d="M94.5,52.68a7.4,7.4,0,0,1-.27,2.13,5.29,5.29,0,0,1-.68,1.48,3.48,3.48,0,0,1-.92.94,4.63,4.63,0,0,1-1,.51,4.09,4.09,0,0,1-.87.22l-0.59,0H86.37V47.92h3a5.77,5.77,0,0,1,2.24.4,4.64,4.64,0,0,1,1.6,1.07,4.4,4.4,0,0,1,1,1.52A5,5,0,0,1,94.5,52.68ZM89.63,56.8A2.72,2.72,0,0,0,92,55.73a5.41,5.41,0,0,0,.74-3.09,5.23,5.23,0,0,0-.15-1.24A2.66,2.66,0,0,0,92,50.28a3.07,3.07,0,0,0-1.17-.81A5,5,0,0,0,89,49.17H88V56.8h1.63Z"/><path class="cls-1" d="M104.47,52.91a7.14,7.14,0,0,1-.32,2.24,4.57,4.57,0,0,1-.89,1.61,3.72,3.72,0,0,1-1.33,1,4.37,4.37,0,0,1-3.32,0,3.72,3.72,0,0,1-1.33-1,4.58,4.58,0,0,1-.89-1.61,8,8,0,0,1,0-4.48,4.56,4.56,0,0,1,.89-1.61,3.8,3.8,0,0,1,1.33-1,4.29,4.29,0,0,1,3.32,0,3.8,3.8,0,0,1,1.33,1,4.61,4.61,0,0,1,.89,1.61A7.1,7.1,0,0,1,104.47,52.91Zm-4.24,3.81a2.41,2.41,0,0,0,1-.2,2.16,2.16,0,0,0,.82-0.65,3.29,3.29,0,0,0,.57-1.18,7.11,7.11,0,0,0,.22-1.78,7,7,0,0,0-.21-1.74A3.5,3.5,0,0,0,102,50a2.11,2.11,0,0,0-.79-0.67,2.2,2.2,0,0,0-.94-0.21,2.47,2.47,0,0,0-1,.19,2.07,2.07,0,0,0-.82.65A3.34,3.34,0,0,0,98,51.14a7,7,0,0,0-.22,1.78A7.07,7.07,0,0,0,98,54.66a3.43,3.43,0,0,0,.55,1.18,2.19,2.19,0,0,0,.79.67A2.16,2.16,0,0,0,100.24,56.73Z"/><path class="cls-1" d="M113.61,57a3.73,3.73,0,0,1-1.27.82,4.21,4.21,0,0,1-1.53.27,4.13,4.13,0,0,1-1.66-.33,3.72,3.72,0,0,1-1.33-1,4.58,4.58,0,0,1-.89-1.61,8,8,0,0,1,0-4.48,4.56,4.56,0,0,1,.89-1.61,3.78,3.78,0,0,1,1.33-1,4.07,4.07,0,0,1,1.65-.33,4.23,4.23,0,0,1,1.53.27,3.74,3.74,0,0,1,1.27.82l-1.13,1a2.07,2.07,0,0,0-.76-0.57,2.2,2.2,0,0,0-.87-0.18,2.47,2.47,0,0,0-1,.19,2.07,2.07,0,0,0-.82.65,3.34,3.34,0,0,0-.57,1.18,7,7,0,0,0-.22,1.78,7.07,7.07,0,0,0,.21,1.75,3.43,3.43,0,0,0,.55,1.18,2.19,2.19,0,0,0,.79.67,2.14,2.14,0,0,0,.94.21,2.4,2.4,0,0,0,.92-0.18,2.17,2.17,0,0,0,.79-0.57Z"/><path class="cls-2" d="M42,71H13c-0.81,0-1.46.65-1.46,1.93V126A1.51,1.51,0,0,0,13,127H53a1.51,1.51,0,0,0,1.46-1V84a1.38,1.38,0,0,0-.26-1.09L42.61,71.26A0.88,0.88,0,0,0,42,71Z"/><polygon class="cls-3" points="42.5 71.15 42.5 83 54.35 83 42.5 71.15"/><path class="cls-7" d="M53,127H13a1.46,1.46,0,0,1-1.46-1.46V110h43v15.54A1.46,1.46,0,0,1,53,127Z"/><path class="cls-1" d="M22.58,124H20.94V113.92h2.9a4.07,4.07,0,0,1,1.27.21,3.46,3.46,0,0,1,1.13.62,3.21,3.21,0,0,1,.81,1,2.75,2.75,0,0,1,.31,1.31,3.57,3.57,0,0,1-.26,1.39,2.9,2.9,0,0,1-.73,1,3.27,3.27,0,0,1-1.12.66,4.31,4.31,0,0,1-1.45.23H22.58V124h0Zm0-8.83v4h1.5a1.79,1.79,0,0,0,.59-0.1,1.5,1.5,0,0,0,.54-0.33,1.64,1.64,0,0,0,.4-0.65,3.07,3.07,0,0,0,.15-1,2.79,2.79,0,0,0-.07-0.57,1.64,1.64,0,0,0-.28-0.62,1.66,1.66,0,0,0-.59-0.49,2.21,2.21,0,0,0-1-.2H22.58Z"/><path class="cls-1" d="M30.85,124H29.21V113.92h2.9a4.07,4.07,0,0,1,1.27.21,3.46,3.46,0,0,1,1.13.62,3.21,3.21,0,0,1,.81,1,2.75,2.75,0,0,1,.31,1.31,3.57,3.57,0,0,1-.26,1.39,2.9,2.9,0,0,1-.73,1,3.27,3.27,0,0,1-1.12.66,4.31,4.31,0,0,1-1.45.23H30.85V124h0Zm0-8.83v4h1.5a1.79,1.79,0,0,0,.59-0.1,1.5,1.5,0,0,0,.54-0.33,1.64,1.64,0,0,0,.4-0.65,3.07,3.07,0,0,0,.15-1,2.79,2.79,0,0,0-.07-0.57,1.64,1.64,0,0,0-.28-0.62,1.66,1.66,0,0,0-.59-0.49,2.21,2.21,0,0,0-1-.2H30.85Z"/><path class="cls-1" d="M44.61,113.92V115h-3v9H39.94v-9h-3v-1.12h7.67Z"/><path class="cls-8" d="M44.5,101h-24V85h24v16Zm-22-2h20V87h-20V99Z"/><path class="cls-8" d="M25.5,106a1,1,0,0,1-.86-1.52l3-5a1,1,0,1,1,1.72,1l-3,5A1,1,0,0,1,25.5,106Z"/><path class="cls-8" d="M39.5,106a1,1,0,0,1-.86-0.49l-3-5a1,1,0,0,1,1.72-1l3,5A1,1,0,0,1,39.5,106Z"/><path class="cls-8" d="M32.5,87a1,1,0,0,1-1-1V83a1,1,0,0,1,2,0v3A1,1,0,0,1,32.5,87Z"/><rect class="cls-9" x="22.5" y="87" width="20" height="12"/><path class="cls-2" d="M108,71H79c-0.81,0-1.46.65-1.46,1.93V126A1.51,1.51,0,0,0,79,127H119a1.51,1.51,0,0,0,1.46-1V84a1.38,1.38,0,0,0-.26-1.09L108.61,71.26A0.88,0.88,0,0,0,108,71Z"/><polygon class="cls-3" points="108.5 71.15 108.5 83 120.35 83 108.5 71.15"/><path class="cls-10" d="M119,127H79a1.46,1.46,0,0,1-1.46-1.46V110h43v15.54A1.46,1.46,0,0,1,119,127Z"/><path class="cls-1" d="M91.38,119.1l2.56,4.9H92l-1.6-3.8H90.3L88.58,124h-1.9l2.56-4.9-2.72-5.18h1.87l1.78,4.1H90.3l1.93-4.1H94.1Z"/><path class="cls-1" d="M98,113.92v8.83h4.64V124h-6.3V113.92H98Z"/><path class="cls-1" d="M110,121.24a2.6,2.6,0,0,1-.23,1.06,2.79,2.79,0,0,1-.63.9,3,3,0,0,1-1,.62,3.77,3.77,0,0,1-1.37.23c-0.22,0-.44,0-0.68,0a5.49,5.49,0,0,1-.7-0.12,3.69,3.69,0,0,1-.68-0.23,2.17,2.17,0,0,1-.55-0.35l0.29-1.18a2.88,2.88,0,0,0,.49.21l0.61,0.19a6.13,6.13,0,0,0,.63.14,3.48,3.48,0,0,0,.59.06,1.88,1.88,0,0,0,1.28-.39,1.46,1.46,0,0,0,.44-1.15,1.11,1.11,0,0,0-.31-0.79,3.4,3.4,0,0,0-.79-0.6q-0.47-.27-1-0.53a6.17,6.17,0,0,1-1-.63,3.28,3.28,0,0,1-.79-0.85,2.24,2.24,0,0,1-.31-1.23,2.75,2.75,0,0,1,.25-1.19,2.66,2.66,0,0,1,.66-0.88,2.93,2.93,0,0,1,1-.55,3.54,3.54,0,0,1,1.17-.19,7.17,7.17,0,0,1,1.27.12,2.8,2.8,0,0,1,1,.38l-0.19.39-0.21.4-0.16.31-0.08.14-0.19-.11a1.42,1.42,0,0,0-.29-0.14,2.1,2.1,0,0,0-.51-0.1,4.78,4.78,0,0,0-.81,0,1.41,1.41,0,0,0-.52.16,1.8,1.8,0,0,0-.44.32,1.46,1.46,0,0,0-.3.43,1.1,1.1,0,0,0-.11.46,1.24,1.24,0,0,0,.31.88,3,3,0,0,0,.78.59q0.47,0.25,1,.49a5.52,5.52,0,0,1,1,.58,2.94,2.94,0,0,1,.79.85A2.47,2.47,0,0,1,110,121.24Z"/><path class="cls-8" d="M94.5,87V83h-12v22h33V87h-21Zm-10-2h8v2h-8V85Zm0,4h8v2h-8V89Zm0,4h8v2h-8V93Zm0,4h8v2h-8V97Zm8,6h-8v-2h8v2Zm21,0h-19v-2h19v2Zm0-4h-19V97h19v2Zm0-4h-19V93h19v2Zm-19-4V89h19v2h-19Z"/><path class="cls-2" d="M42,137H13c-0.81,0-1.46.66-1.46,1.93V192A1.51,1.51,0,0,0,13,193H53a1.51,1.51,0,0,0,1.46-1V150a1.38,1.38,0,0,0-.26-1.09L42.61,137.26A0.88,0.88,0,0,0,42,137Z"/><polygon class="cls-3" points="42.5 137.15 42.5 149 54.35 149 42.5 137.15"/><path class="cls-11" d="M53,193H13a1.46,1.46,0,0,1-1.46-1.46V176h43v15.54A1.46,1.46,0,0,1,53,193Z"/><path class="cls-1" d="M26.87,179.92V181h-3v9H22.2v-9h-3v-1.12h7.67Z"/><path class="cls-1" d="M33.44,185.1L36,190H34.1l-1.6-3.8H32.36L30.64,190h-1.9l2.56-4.9-2.72-5.18h1.87l1.78,4.1h0.14l1.93-4.1h1.87Z"/><path class="cls-1" d="M45.53,179.92V181h-3v9H40.87v-9h-3v-1.12h7.67Z"/><path class="cls-8" d="M23.5,150h-6a1,1,0,1,1,0-2h6A1,1,0,0,1,23.5,150Z"/><path class="cls-8" d="M26.5,155h-9a1,1,0,1,1,0-2h9A1,1,0,0,1,26.5,155Z"/><path class="cls-8" d="M30.5,155a1,1,0,0,1-.71-0.29A1,1,0,0,1,29.5,154a1,1,0,0,1,.3-0.71,1,1,0,0,1,1.41,0A1,1,0,0,1,30.5,155Z"/><path class="cls-8" d="M42.5,155h-8a1,1,0,1,1,0-2h8A1,1,0,0,1,42.5,155Z"/><path class="cls-8" d="M17.5,170a1,1,0,0,1-.71-1.71,1,1,0,0,1,1.42,0,1,1,0,0,1,.29.7A1,1,0,0,1,17.5,170Z"/><path class="cls-8" d="M29.5,170h-8a1,1,0,1,1,0-2h8A1,1,0,0,1,29.5,170Z"/><path class="cls-8" d="M48.5,155h-2a1,1,0,1,1,0-2h2A1,1,0,0,1,48.5,155Z"/><path class="cls-8" d="M39.5,160h-22a1,1,0,1,1,0-2h22A1,1,0,0,1,39.5,160Z"/><path class="cls-8" d="M48.5,160h-6a1,1,0,1,1,0-2h6A1,1,0,0,1,48.5,160Z"/><path class="cls-8" d="M21.5,165h-4a1,1,0,1,1,0-2h4A1,1,0,0,1,21.5,165Z"/><path class="cls-8" d="M35.5,165h-10a1,1,0,1,1,0-2h10A1,1,0,0,1,35.5,165Z"/><path class="cls-8" d="M48.5,165h-9a1,1,0,1,1,0-2h9A1,1,0,0,1,48.5,165Z"/><path class="cls-2" d="M108,137H79c-0.81,0-1.46.66-1.46,1.93V192A1.51,1.51,0,0,0,79,193H119a1.51,1.51,0,0,0,1.46-1V150a1.38,1.38,0,0,0-.26-1.09l-11.64-11.64A0.88,0.88,0,0,0,108,137Z"/><polygon class="cls-3" points="108.5 137.15 108.5 149 120.35 149 108.5 137.15"/><path class="cls-12" d="M119,193H79a1.46,1.46,0,0,1-1.46-1.46V176h43v15.54A1.46,1.46,0,0,1,119,193Z"/><path class="cls-1" d="M92.58,189a3.73,3.73,0,0,1-1.27.82,4.21,4.21,0,0,1-1.53.27,4.13,4.13,0,0,1-1.66-.33,3.72,3.72,0,0,1-1.33-1,4.58,4.58,0,0,1-.89-1.61,8,8,0,0,1,0-4.48,4.56,4.56,0,0,1,.89-1.61,3.78,3.78,0,0,1,1.33-1,4.07,4.07,0,0,1,1.65-.33,4.23,4.23,0,0,1,1.53.27,3.74,3.74,0,0,1,1.27.82l-1.14,1a2.07,2.07,0,0,0-.76-0.57,2.2,2.2,0,0,0-.87-0.18,2.47,2.47,0,0,0-1,.19A2.07,2.07,0,0,0,88,182a3.34,3.34,0,0,0-.57,1.18,7,7,0,0,0-.22,1.78,7.07,7.07,0,0,0,.21,1.75,3.43,3.43,0,0,0,.55,1.18,2.19,2.19,0,0,0,.79.67,2.14,2.14,0,0,0,.94.21,2.4,2.4,0,0,0,.92-0.18,2.17,2.17,0,0,0,.79-0.57Z"/><path class="cls-1" d="M100.63,187.24a2.6,2.6,0,0,1-.23,1.06,2.76,2.76,0,0,1-.64.9,3.06,3.06,0,0,1-1,.62,3.77,3.77,0,0,1-1.37.23c-0.22,0-.44,0-0.68,0a5.49,5.49,0,0,1-.7-0.12,3.69,3.69,0,0,1-.68-0.23,2.17,2.17,0,0,1-.55-0.35l0.29-1.18a2.88,2.88,0,0,0,.49.21l0.61,0.19a6.13,6.13,0,0,0,.63.14,3.48,3.48,0,0,0,.59.06,1.88,1.88,0,0,0,1.28-.39,1.46,1.46,0,0,0,.44-1.15,1.11,1.11,0,0,0-.31-0.79,3.4,3.4,0,0,0-.79-0.6q-0.47-.27-1-0.53a6.17,6.17,0,0,1-1-.63,3.28,3.28,0,0,1-.79-0.85,2.24,2.24,0,0,1-.31-1.23,2.75,2.75,0,0,1,.25-1.19,2.66,2.66,0,0,1,.66-0.88,2.93,2.93,0,0,1,1-.55,3.54,3.54,0,0,1,1.17-.19,7.17,7.17,0,0,1,1.27.12,2.8,2.8,0,0,1,1,.38l-0.19.39-0.2.4-0.16.31-0.08.14-0.18-.11a1.42,1.42,0,0,0-.29-0.14,2.1,2.1,0,0,0-.51-0.1,4.78,4.78,0,0,0-.81,0,1.41,1.41,0,0,0-.52.16,1.8,1.8,0,0,0-.44.32,1.46,1.46,0,0,0-.3.43,1.1,1.1,0,0,0-.11.46,1.24,1.24,0,0,0,.31.88,3,3,0,0,0,.78.59q0.46,0.25,1,.49a5.52,5.52,0,0,1,1,.58,2.94,2.94,0,0,1,.79.85A2.46,2.46,0,0,1,100.63,187.24Z"/><path class="cls-1" d="M105,190.06l-3.13-10.13h1.87l2.34,8.69,2.47-8.69h1.86l-3.28,10.13H105Z"/><path class="cls-8" d="M94.5,153v-4h-12v22h33V153h-21Zm-10-2h8v2h-8v-2Zm0,4h8v2h-8v-2Zm0,4h8v2h-8v-2Zm0,4h8v2h-8v-2Zm8,6h-8v-2h8v2Zm21,0h-19v-2h19v2Zm0-4h-19v-2h19v2Zm0-4h-19v-2h19v2Zm-19-4v-2h19v2h-19Z"/><path class="cls-2" d="M42,203H13c-0.81,0-1.46.66-1.46,1.93V258A1.51,1.51,0,0,0,13,259H53a1.51,1.51,0,0,0,1.46-1V216a1.38,1.38,0,0,0-.26-1.09L42.61,203.26A0.88,0.88,0,0,0,42,203Z"/><polygon class="cls-3" points="42.5 203.15 42.5 215 54.35 215 42.5 203.15"/><path class="cls-13" d="M53,259H13a1.46,1.46,0,0,1-1.46-1.46V242h43v15.54A1.46,1.46,0,0,1,53,259Z"/><path class="cls-1" d="M25.83,256l-1.9-3.65H22.37V256H20.73V245.92h2.9a4.07,4.07,0,0,1,1.27.21,3.46,3.46,0,0,1,1.13.62,3.21,3.21,0,0,1,.81,1,2.75,2.75,0,0,1,.31,1.31,3.3,3.3,0,0,1-.51,1.86A3,3,0,0,1,25.27,252l2.3,4H25.83Zm-3.46-4.84h1.49a1.85,1.85,0,0,0,.6-0.1,1.49,1.49,0,0,0,.55-0.33,1.64,1.64,0,0,0,.4-0.65,3.07,3.07,0,0,0,.15-1,2.79,2.79,0,0,0-.07-0.57,1.61,1.61,0,0,0-.87-1.11,2.21,2.21,0,0,0-1-.2H22.37v4Z"/><path class="cls-1" d="M36.89,245.92V247h-3v9H32.23v-9h-3v-1.12h7.67Z"/><path class="cls-1" d="M40.55,247.17v3.17h4.21v1.12H40.55V256H38.89V245.92h6.3v1.24H40.55Z"/><path class="cls-8" d="M17.5,216h6a1,1,0,0,0,0-2h-6A1,1,0,1,0,17.5,216Z"/><path class="cls-8" d="M17.5,221h9a1,1,0,0,0,0-2h-9A1,1,0,1,0,17.5,221Z"/><path class="cls-8" d="M30.5,221a1,1,0,1,0-.71-1.71,1,1,0,0,0,0,1.42A1,1,0,0,0,30.5,221Z"/><path class="cls-8" d="M34.5,221h8a1,1,0,1,0,0-2h-8A1,1,0,1,0,34.5,221Z"/><path class="cls-8" d="M16.79,234.29a1,1,0,0,0,1.42,1.42A1,1,0,0,0,16.79,234.29Z"/><path class="cls-8" d="M29.5,234h-8a1,1,0,0,0,0,2h8A1,1,0,1,0,29.5,234Z"/><path class="cls-8" d="M46.5,221h2a1,1,0,1,0,0-2h-2A1,1,0,0,0,46.5,221Z"/><path class="cls-8" d="M17.5,226h22a1,1,0,1,0,0-2h-22A1,1,0,1,0,17.5,226Z"/><path class="cls-8" d="M48.5,224h-6a1,1,0,0,0,0,2h6A1,1,0,1,0,48.5,224Z"/><path class="cls-8" d="M17.5,231h4a1,1,0,0,0,0-2h-4A1,1,0,1,0,17.5,231Z"/><path class="cls-8" d="M35.5,229h-10a1,1,0,1,0,0,2h10A1,1,0,1,0,35.5,229Z"/><path class="cls-8" d="M48.5,229h-9a1,1,0,0,0,0,2h9A1,1,0,1,0,48.5,229Z"/><path class="cls-2" d="M108,203H79c-0.81,0-1.46.66-1.46,1.93V258A1.51,1.51,0,0,0,79,259H119a1.51,1.51,0,0,0,1.46-1V216a1.38,1.38,0,0,0-.26-1.09l-11.64-11.64A0.88,0.88,0,0,0,108,203Z"/><polygon class="cls-3" points="108.5 203.15 108.5 215 120.35 215 108.5 203.15"/><path class="cls-14" d="M119,259H79a1.46,1.46,0,0,1-1.46-1.46V242h43v15.54A1.46,1.46,0,0,1,119,259Z"/><path class="cls-1" d="M96.27,245.92v1.33l-4.8,7.21-0.27.22h5.07V256h-6.7v-1.33l4.8-7.2,0.29-.22H89.57v-1.33h6.7Z"/><path class="cls-1" d="M100.27,256H98.6V245.92h1.67V256Z"/><path class="cls-1" d="M104.41,256h-1.64V245.92h2.9a4.07,4.07,0,0,1,1.27.21,3.46,3.46,0,0,1,1.13.62,3.21,3.21,0,0,1,.81,1,2.75,2.75,0,0,1,.31,1.31,3.57,3.57,0,0,1-.26,1.39,2.9,2.9,0,0,1-.72,1,3.27,3.27,0,0,1-1.12.66,4.31,4.31,0,0,1-1.45.23h-1.22V256h0Zm0-8.83v4h1.5a1.79,1.79,0,0,0,.6-0.1,1.5,1.5,0,0,0,.54-0.33,1.64,1.64,0,0,0,.4-0.65,3.07,3.07,0,0,0,.15-1,2.79,2.79,0,0,0-.07-0.57,1.64,1.64,0,0,0-.28-0.62,1.66,1.66,0,0,0-.6-0.49,2.21,2.21,0,0,0-1-.2h-1.23Z"/><path class="cls-8" d="M99.5,227v-2h2v-2h-2v-2h2v-2h-2v-2h2v-2h-2v-2h2v-2h-2v-2h-2v2h-2v2h2v2h-2v2h2v2h-2v2h2v2h-2v2h2v2h-4v5a5,5,0,0,0,10,0v-5h-4Zm2,5a3,3,0,0,1-6,0v-3h6v3Z"/><path class="cls-8" d="M97.5,233h2a1,1,0,1,0,0-2h-2A1,1,0,0,0,97.5,233Z"/><path class="cls-2" d="M42,269H13c-0.81,0-1.46.65-1.46,1.93V324A1.51,1.51,0,0,0,13,325H53a1.51,1.51,0,0,0,1.46-1V282a1.38,1.38,0,0,0-.26-1.09L42.61,269.26A0.88,0.88,0,0,0,42,269Z"/><polygon class="cls-3" points="42.5 269.15 42.5 281 54.35 281 42.5 269.15"/><path class="cls-8" d="M53,325H13a1.46,1.46,0,0,1-1.46-1.46V308h43v15.54A1.46,1.46,0,0,1,53,325Z"/><circle class="cls-1" cx="23.5" cy="316" r="3"/><circle class="cls-1" cx="33.5" cy="316" r="3"/><circle class="cls-1" cx="43.5" cy="316" r="3"/><path class="cls-8" d="M31.71,294.64V293.2a3.61,3.61,0,0,1,.38-1.67,6.34,6.34,0,0,1,1-1.38q0.58-.65,1.25-1.25t1.25-1.25a6.37,6.37,0,0,0,1-1.38,3.61,3.61,0,0,0,.38-1.67,4.7,4.7,0,0,0-.23-1.47,3.25,3.25,0,0,0-.69-1.2,3.32,3.32,0,0,0-1.17-.81,4.25,4.25,0,0,0-1.67-.3,3.53,3.53,0,0,0-2.87,1.33,5.86,5.86,0,0,0-1.21,3.5H27a8.41,8.41,0,0,1,.53-2.68,6.34,6.34,0,0,1,1.27-2.08,5.71,5.71,0,0,1,1.91-1.35,6,6,0,0,1,2.42-.48,6.92,6.92,0,0,1,2.71.48,5.16,5.16,0,0,1,1.83,1.26,4.78,4.78,0,0,1,1,1.77,6.69,6.69,0,0,1,.32,2,4.27,4.27,0,0,1-.34,1.74,6.94,6.94,0,0,1-.87,1.45,13.78,13.78,0,0,1-1.14,1.29,16.6,16.6,0,0,0-1.14,1.26,6.8,6.8,0,0,0-.87,1.36,3.63,3.63,0,0,0-.34,1.59v1.32H31.71ZM34.29,298v2.64H31.71V298h2.58Z"/><path class="cls-2" d="M108,269H79c-0.81,0-1.46.65-1.46,1.93V324A1.51,1.51,0,0,0,79,325H119a1.51,1.51,0,0,0,1.46-1V282a1.38,1.38,0,0,0-.26-1.09l-11.64-11.64A0.88,0.88,0,0,0,108,269Z"/><polygon class="cls-3" points="108.5 269.15 108.5 281 120.35 281 108.5 269.15"/><circle class="cls-15" cx="89.93" cy="283.43" r="4.57"/><polygon class="cls-16" points="77.5 308 88.5 308 120.5 308 120.5 297 110.5 287.5 100 299 94.52 293.52 77.5 308"/><path class="cls-17" d="M119,325H79a1.46,1.46,0,0,1-1.46-1.46V308h43v15.54A1.46,1.46,0,0,1,119,325Z"/><path class="cls-1" d="M92.43,311.65v7.85a2.51,2.51,0,0,1-.26,1.2,2.14,2.14,0,0,1-.7.78,2.78,2.78,0,0,1-1,.41,5.78,5.78,0,0,1-1.17.12,4.74,4.74,0,0,1-.7-0.06,6,6,0,0,1-.83-0.19q-0.43-.13-0.83-0.29a3,3,0,0,1-.67-0.37L87,320a2,2,0,0,0,.39.2q0.25,0.1.55,0.19c0.2,0.06.41,0.11,0.63,0.16a3,3,0,0,0,.61.07,2.1,2.1,0,0,0,1.16-.28,1.11,1.11,0,0,0,.46-1v-7.71h1.67Z"/><path class="cls-1" d="M96.51,321.93H94.87V311.85h2.9a4.07,4.07,0,0,1,1.27.21,3.46,3.46,0,0,1,1.13.62,3.21,3.21,0,0,1,.81,1,2.75,2.75,0,0,1,.31,1.31,3.57,3.57,0,0,1-.26,1.39,2.9,2.9,0,0,1-.73,1,3.27,3.27,0,0,1-1.12.66,4.31,4.31,0,0,1-1.45.23H96.51v3.64h0Zm0-8.83v4H98a1.79,1.79,0,0,0,.59-0.1,1.5,1.5,0,0,0,.54-0.33,1.64,1.64,0,0,0,.4-0.65,3.07,3.07,0,0,0,.15-1,2.79,2.79,0,0,0-.07-0.57,1.64,1.64,0,0,0-.28-0.62,1.66,1.66,0,0,0-.59-0.49,2.2,2.2,0,0,0-1-.2H96.51Z"/><path class="cls-1" d="M110.5,316.74v3.9a2.94,2.94,0,0,1-.7.65,4.3,4.3,0,0,1-.82.42,4.23,4.23,0,0,1-.89.23,5.84,5.84,0,0,1-.91.07,4.13,4.13,0,0,1-1.66-.33,3.72,3.72,0,0,1-1.33-1,4.58,4.58,0,0,1-.89-1.61,8,8,0,0,1,0-4.48,4.56,4.56,0,0,1,.89-1.61,3.78,3.78,0,0,1,1.33-1,4.07,4.07,0,0,1,1.65-.33,4.23,4.23,0,0,1,1.53.27,3.74,3.74,0,0,1,1.27.82l-1.13,1a2,2,0,0,0-.75-0.57,2.25,2.25,0,0,0-.87-0.18,2.47,2.47,0,0,0-1,.19,2.07,2.07,0,0,0-.82.65,3.34,3.34,0,0,0-.57,1.18,7,7,0,0,0-.22,1.78,7.41,7.41,0,0,0,.21,1.78,3.65,3.65,0,0,0,.55,1.23,2.33,2.33,0,0,0,.79.71,2,2,0,0,0,.94.23l0.4,0,0.51-.07a3.29,3.29,0,0,0,.49-0.13,0.7,0.7,0,0,0,.34-0.23v-2.49h-1.71v-1.12h3.34Z"/></svg>