<?xml version="1.0" encoding="utf-8"?>
<!-- Generator: Adobe Illustrator 19.2.1, SVG Export Plug-In . SVG Version: 6.00 Build 0)  -->
<svg version="1.1" id="Layer_1" xmlns="http://www.w3.org/2000/svg" xmlns:xlink="http://www.w3.org/1999/xlink" x="0px" y="0px"
	 viewBox="0 0 100 100" style="enable-background:new 0 0 100 100;" xml:space="preserve">
<style type="text/css">
	.st0{enable-background:new    ;}
	.st1{fill:none;stroke:#808285;stroke-width:3;stroke-linecap:round;stroke-linejoin:round;stroke-miterlimit:10;}
</style>
<text transform="matrix(1 0 0 1 512 384)" style="font-family:'MyriadPro-Regular'; font-size:12px;">mixcloud</text>
<g>
	<g>
		<line class="st1" x1="50" y1="50.5" x2="50" y2="71.4"/>
		<line class="st1" x1="57.2" y1="57.7" x2="50" y2="50.5"/>
		<line class="st1" x1="42.8" y1="57.7" x2="50" y2="50.5"/>
	</g>
	<path class="st1" d="M58,71.5h19.8C84,71.5,89,65.8,89,59.6s-5-11.5-11.2-11.5c-0.1,0-0.1-0.3-0.2-0.3c0.1-0.8,0.2-1.8,0.2-2.7
		c0-9.4-7-17.1-15.7-17.1c-6.8,0-12.7,4.8-14.8,11.4c-2.4-3.1-6-5-10-5c-7,0-12.7,6.1-13.1,13.6c-0.6-0.1-1.3-0.1-1.9-0.1
		C16,47.9,11,53.4,11,59.6s5,11.9,11.2,11.9H42"/>
</g>
</svg>
